<svg width="48" height="48" viewBox="0 0 48 48" fill="none" xmlns="http://www.w3.org/2000/svg">
<path d="M31.7075 16.2925C31.6146 16.1995 31.5043 16.1258 31.3829 16.0754C31.2615 16.0251 31.1314 15.9992 31 15.9992C30.8686 15.9992 30.7385 16.0251 30.6171 16.0754C30.4957 16.1258 30.3854 16.1995 30.2925 16.2925L26.5863 20H21.4137L17.7075 16.2925C17.5199 16.1049 17.2654 15.9994 17 15.9994C16.7346 15.9994 16.4801 16.1049 16.2925 16.2925C16.1049 16.4801 15.9994 16.7346 15.9994 17C15.9994 17.2654 16.1049 17.5199 16.2925 17.7075L20 21.4137V26.5863L16.2925 30.2925C16.1049 30.4801 15.9994 30.7346 15.9994 31C15.9994 31.2654 16.1049 31.5199 16.2925 31.7075C16.4801 31.8951 16.7346 32.0006 17 32.0006C17.2654 32.0006 17.5199 31.8951 17.7075 31.7075L21.4137 28H26.5863L30.2925 31.7075C30.3854 31.8004 30.4957 31.8741 30.6171 31.9244C30.7385 31.9747 30.8686 32.0006 31 32.0006C31.1314 32.0006 31.2615 31.9747 31.3829 31.9244C31.5043 31.8741 31.6146 31.8004 31.7075 31.7075C31.8004 31.6146 31.8741 31.5043 31.9244 31.3829C31.9747 31.2615 32.0006 31.1314 32.0006 31C32.0006 30.8686 31.9747 30.7385 31.9244 30.6171C31.8741 30.4957 31.8004 30.3854 31.7075 30.2925L28 26.5863V21.4137L31.7075 17.7075C31.8005 17.6146 31.8742 17.5043 31.9246 17.3829C31.9749 17.2615 32.0008 17.1314 32.0008 17C32.0008 16.8686 31.9749 16.7385 31.9246 16.6171C31.8742 16.4957 31.8005 16.3854 31.7075 16.2925ZM22 22H26V26H22V22ZM25.3137 15.6662C25.6237 14.7906 26.1504 14.0077 26.8447 13.3906C27.539 12.7734 28.3783 12.3422 29.2843 12.1372C30.1903 11.9321 31.1335 11.9598 32.0259 12.2178C32.9183 12.4758 33.7308 12.9555 34.3876 13.6124C35.0445 14.2692 35.5242 15.0817 35.7822 15.9741C36.0402 16.8665 36.0679 17.8097 35.8628 18.7157C35.6578 19.6217 35.2266 20.461 34.6094 21.1553C33.9923 21.8496 33.2094 22.3763 32.3337 22.6862C32.227 22.7267 32.1141 22.7483 32 22.75C31.7642 22.7499 31.5361 22.6665 31.3558 22.5145C31.1756 22.3625 31.0548 22.1517 31.0149 21.9193C30.975 21.687 31.0184 21.448 31.1376 21.2445C31.2568 21.0411 31.444 20.8863 31.6662 20.8075C32.2234 20.6102 32.7216 20.275 33.1143 19.8332C33.5069 19.3913 33.7813 18.8572 33.9117 18.2807C34.0422 17.7042 34.0245 17.104 33.8603 16.5362C33.6962 15.9683 33.3909 15.4513 32.9729 15.0333C32.5549 14.6154 32.0379 14.3101 31.4701 14.1459C30.9022 13.9817 30.3021 13.9641 29.7255 14.0945C29.149 14.225 28.6149 14.4993 28.1731 14.892C27.7312 15.2846 27.396 15.7828 27.1987 16.34C27.1566 16.4659 27.0898 16.5822 27.0023 16.682C26.9147 16.7819 26.8082 16.8633 26.6888 16.9215C26.5694 16.9797 26.4397 17.0136 26.3071 17.0211C26.1745 17.0286 26.0418 17.0097 25.9166 16.9653C25.7914 16.921 25.6764 16.8522 25.5781 16.7629C25.4798 16.6736 25.4002 16.5657 25.3441 16.4453C25.288 16.325 25.2564 16.1947 25.2512 16.062C25.246 15.9293 25.2672 15.7969 25.3137 15.6725V15.6662ZM36 30.5C36.0006 31.7979 35.5423 33.0541 34.706 34.0466C33.8697 35.0392 32.7094 35.7039 31.4302 35.9235C30.151 36.143 28.8355 35.903 27.7161 35.2461C26.5968 34.5892 25.7458 33.5576 25.3137 32.3337C25.2306 32.0851 25.2483 31.8137 25.3633 31.5781C25.4782 31.3424 25.6811 31.1613 25.9283 31.0738C26.1754 30.9863 26.4471 30.9993 26.6847 31.1101C26.9223 31.221 27.1069 31.4207 27.1987 31.6663C27.396 32.2235 27.7312 32.7216 28.1731 33.1143C28.6149 33.5069 29.149 33.7813 29.7255 33.9117C30.3021 34.0422 30.9022 34.0245 31.4701 33.8603C32.0379 33.6962 32.5549 33.3909 32.9729 32.9729C33.3909 32.5549 33.6962 32.0379 33.8603 31.4701C34.0245 30.9022 34.0422 30.3021 33.9117 29.7255C33.7813 29.149 33.5069 28.6149 33.1143 28.1731C32.7216 27.7312 32.2234 27.396 31.6662 27.1987C31.4207 27.1069 31.221 26.9223 31.1101 26.6847C30.9993 26.4471 30.9863 26.1754 31.0738 25.9283C31.1613 25.6811 31.3424 25.4782 31.5781 25.3633C31.8137 25.2483 32.0851 25.2306 32.3337 25.3137C33.4054 25.6941 34.3331 26.3968 34.9895 27.3253C35.6459 28.2539 35.9989 29.3628 36 30.5ZM22.6862 32.3337C22.3763 33.2094 21.8496 33.9923 21.1553 34.6094C20.461 35.2266 19.6217 35.6578 18.7157 35.8628C17.8097 36.0679 16.8665 36.0402 15.9741 35.7822C15.0817 35.5242 14.2692 35.0445 13.6124 34.3876C12.9555 33.7308 12.4758 32.9183 12.2178 32.0259C11.9598 31.1335 11.9321 30.1903 12.1372 29.2843C12.3422 28.3783 12.7734 27.539 13.3906 26.8447C14.0077 26.1504 14.7906 25.6237 15.6662 25.3137C15.9149 25.2306 16.1863 25.2483 16.4219 25.3633C16.6576 25.4782 16.8387 25.6811 16.9262 25.9283C17.0137 26.1754 17.0007 26.4471 16.8899 26.6847C16.779 26.9223 16.5793 27.1069 16.3337 27.1987C15.7765 27.396 15.2784 27.7312 14.8857 28.1731C14.4931 28.6149 14.2187 29.149 14.0883 29.7255C13.9578 30.3021 13.9755 30.9022 14.1397 31.4701C14.3038 32.0379 14.6091 32.5549 15.0271 32.9729C15.4451 33.3909 15.9621 33.6962 16.5299 33.8603C17.0978 34.0245 17.6979 34.0422 18.2745 33.9117C18.851 33.7813 19.3851 33.5069 19.8269 33.1143C20.2688 32.7216 20.604 32.2235 20.8013 31.6663C20.8931 31.4207 21.0777 31.221 21.3153 31.1101C21.5529 30.9993 21.8246 30.9863 22.0717 31.0738C22.3189 31.1613 22.5218 31.3424 22.6367 31.5781C22.7517 31.8137 22.7694 32.0851 22.6862 32.3337ZM12 17.5C11.9994 16.2021 12.4577 14.9459 13.294 13.9534C14.1303 12.9608 15.2906 12.2961 16.5698 12.0765C17.849 11.857 19.1646 12.097 20.2839 12.7539C21.4032 13.4108 22.2542 14.4424 22.6862 15.6662C22.7328 15.7906 22.754 15.923 22.7488 16.0557C22.7436 16.1884 22.712 16.3187 22.6559 16.4391C22.5998 16.5594 22.5202 16.6674 22.4219 16.7567C22.3236 16.846 22.2086 16.9148 22.0834 16.9591C21.9582 17.0034 21.8255 17.0224 21.6929 17.0148C21.5603 17.0073 21.4305 16.9735 21.3112 16.9152C21.1918 16.857 21.0853 16.7756 20.9977 16.6758C20.9102 16.576 20.8434 16.4597 20.8013 16.3337C20.604 15.7765 20.2688 15.2784 19.8269 14.8857C19.3851 14.4931 18.851 14.2187 18.2745 14.0883C17.6979 13.9578 17.0978 13.9755 16.5299 14.1397C15.9621 14.3038 15.4451 14.6091 15.0271 15.0271C14.6091 15.4451 14.3038 15.9621 14.1397 16.5299C13.9755 17.0978 13.9578 17.6979 14.0883 18.2745C14.2187 18.851 14.4931 19.3851 14.8857 19.8269C15.2784 20.2688 15.7765 20.604 16.3337 20.8013C16.5606 20.8767 16.753 21.0309 16.8759 21.236C16.9988 21.441 17.0442 21.6833 17.0039 21.919C16.9635 22.1546 16.8401 22.368 16.6559 22.5205C16.4717 22.6729 16.239 22.7544 16 22.75C15.8863 22.7503 15.7733 22.7308 15.6662 22.6925C14.5936 22.3118 13.6652 21.6082 13.0087 20.6784C12.3522 19.7486 11.9998 18.6382 12 17.5Z" fill="#E64351"/>
<g opacity="0.5">
<mask id="path-2-inside-1_412_31" fill="white">
<path d="M0 0H12V12H0V0Z"/>
</mask>
<path d="M0 0V-2H-2V0H0ZM0 0V2H12V0V-2H0V0ZM0 12H2V0H0H-2V12H0Z" fill="white" mask="url(#path-2-inside-1_412_31)"/>
</g>
<g opacity="0.5">
<mask id="path-4-inside-2_412_31" fill="white">
<path d="M48 0H36V12H48V0Z"/>
</mask>
<path d="M48 0V-2H50V0H48ZM48 0V2H36V0V-2H48V0ZM48 12H46V0H48H50V12H48Z" fill="white" mask="url(#path-4-inside-2_412_31)"/>
</g>
<g opacity="0.5">
<mask id="path-6-inside-3_412_31" fill="white">
<path d="M0 48H12V36H0V48Z"/>
</mask>
<path d="M0 48V50H-2V48H0ZM0 48V46H12V48V50H0V48ZM0 36H2V48H0H-2V36H0Z" fill="white" mask="url(#path-6-inside-3_412_31)"/>
</g>
<g opacity="0.5">
<mask id="path-8-inside-4_412_31" fill="white">
<path d="M48 48H36V36H48V48Z"/>
</mask>
<path d="M48 48V50H50V48H48ZM48 48V46H36V48V50H48V48ZM48 36H46V48H48H50V36H48Z" fill="white" mask="url(#path-8-inside-4_412_31)"/>
</g>
</svg>
