<svg width="80" height="80" viewBox="0 0 80 80" fill="none" xmlns="http://www.w3.org/2000/svg">
<g clip-path="url(#clip0_431_62)">
<mask id="mask0_431_62" style="mask-type:luminance" maskUnits="userSpaceOnUse" x="0" y="0" width="80" height="80">
<path d="M80 0H0V80H80V0Z" fill="white"/>
</mask>
<g mask="url(#mask0_431_62)">
<path d="M40 0C32.0888 0 24.3552 2.34596 17.7772 6.74121C11.1992 11.1365 6.07234 17.3836 3.04484 24.6927C0.0173314 32.0017 -0.774802 40.0444 0.768607 47.8036C2.31202 55.5628 6.12165 62.6902 11.7157 68.2843C17.3098 73.8784 24.4372 77.688 32.1964 79.2314C39.9556 80.7748 47.9983 79.9827 55.3074 76.9552C62.6164 73.9277 68.8635 68.8008 73.2588 62.2228C77.6541 55.6448 80 47.9112 80 40C80 29.3913 75.7857 19.2172 68.2843 11.7157C60.7828 4.21427 50.6087 0 40 0ZM56.1 42.9667L31.5 55.2667C30.9926 55.5224 30.4282 55.6441 29.8605 55.6203C29.2928 55.5965 28.7406 55.428 28.2563 55.1308C27.772 54.8335 27.3718 54.4174 27.0936 53.922C26.8153 53.4265 26.6684 52.8682 26.6667 52.3V27.7C26.6627 27.129 26.8055 26.5665 27.0813 26.0665C27.3572 25.5665 27.7569 25.1457 28.2421 24.8446C28.7272 24.5434 29.2817 24.372 29.8522 24.3467C30.4226 24.3213 30.9901 24.443 31.5 24.7L56.1 37C56.6547 37.2765 57.1213 37.7021 57.4475 38.2291C57.7737 38.7561 57.9465 39.3636 57.9465 39.9833C57.9465 40.6031 57.7737 41.2106 57.4475 41.7376C57.1213 42.2646 56.6547 42.6902 56.1 42.9667Z" fill="white"/>
</g>
</g>
<defs>
<clipPath id="clip0_431_62">
<rect width="80" height="80" fill="white"/>
</clipPath>
</defs>
</svg>
