<svg width="48" height="48" viewBox="0 0 48 48" fill="none" xmlns="http://www.w3.org/2000/svg">
<path d="M37 35H30.92C33.5691 33.331 35.5265 30.7615 36.4321 27.7642C37.3376 24.7669 37.1304 21.5435 35.8486 18.6868C34.5668 15.8301 32.2966 13.5324 29.4555 12.2162C26.6145 10.9001 23.3938 10.654 20.3858 11.5234C17.3779 12.3928 14.785 14.319 13.0841 16.9478C11.3833 19.5767 10.6889 22.7313 11.1287 25.8313C11.5684 28.9313 13.1128 31.7683 15.4777 33.8204C17.8426 35.8724 20.8689 37.0015 24 37H37C37.2652 37 37.5196 36.8946 37.7071 36.7071C37.8946 36.5196 38 36.2652 38 36C38 35.7348 37.8946 35.4804 37.7071 35.2929C37.5196 35.1054 37.2652 35 37 35ZM13 24C13 21.8244 13.6451 19.6977 14.8538 17.8887C16.0625 16.0798 17.7805 14.6699 19.7905 13.8373C21.8005 13.0048 24.0122 12.7869 26.146 13.2114C28.2798 13.6358 30.2398 14.6834 31.7782 16.2218C33.3166 17.7602 34.3642 19.7202 34.7886 21.854C35.2131 23.9878 34.9952 26.1995 34.1627 28.2095C33.3301 30.2195 31.9202 31.9375 30.1113 33.1462C28.3023 34.3549 26.1756 35 24 35C21.0836 34.9967 18.2877 33.8367 16.2255 31.7745C14.1633 29.7123 13.0033 26.9164 13 24ZM24 21C24.5933 21 25.1734 20.8241 25.6667 20.4944C26.1601 20.1648 26.5446 19.6962 26.7716 19.1481C26.9987 18.5999 27.0581 17.9967 26.9424 17.4147C26.8266 16.8328 26.5409 16.2982 26.1213 15.8787C25.7018 15.4591 25.1672 15.1734 24.5853 15.0576C24.0033 14.9419 23.4001 15.0013 22.8519 15.2284C22.3038 15.4554 21.8352 15.8399 21.5056 16.3333C21.1759 16.8266 21 17.4067 21 18C21 18.7956 21.3161 19.5587 21.8787 20.1213C22.4413 20.6839 23.2044 21 24 21ZM24 17C24.1978 17 24.3911 17.0586 24.5556 17.1685C24.72 17.2784 24.8482 17.4346 24.9239 17.6173C24.9996 17.8 25.0194 18.0011 24.9808 18.1951C24.9422 18.3891 24.847 18.5673 24.7071 18.7071C24.5673 18.847 24.3891 18.9422 24.1951 18.9808C24.0011 19.0194 23.8 18.9996 23.6173 18.9239C23.4346 18.8482 23.2784 18.72 23.1685 18.5556C23.0586 18.3911 23 18.1978 23 18C23 17.7348 23.1054 17.4804 23.2929 17.2929C23.4804 17.1054 23.7348 17 24 17ZM27 30C27 29.4067 26.8241 28.8266 26.4944 28.3333C26.1648 27.8399 25.6962 27.4554 25.1481 27.2284C24.5999 27.0013 23.9967 26.9419 23.4147 27.0576C22.8328 27.1734 22.2982 27.4591 21.8787 27.8787C21.4591 28.2982 21.1734 28.8328 21.0576 29.4147C20.9419 29.9967 21.0013 30.5999 21.2284 31.1481C21.4554 31.6962 21.8399 32.1648 22.3333 32.4944C22.8266 32.8241 23.4067 33 24 33C24.7956 33 25.5587 32.6839 26.1213 32.1213C26.6839 31.5587 27 30.7956 27 30ZM23 30C23 29.8022 23.0586 29.6089 23.1685 29.4444C23.2784 29.28 23.4346 29.1518 23.6173 29.0761C23.8 29.0004 24.0011 28.9806 24.1951 29.0192C24.3891 29.0578 24.5673 29.153 24.7071 29.2929C24.847 29.4327 24.9422 29.6109 24.9808 29.8049C25.0194 29.9989 24.9996 30.2 24.9239 30.3827C24.8482 30.5654 24.72 30.7216 24.5556 30.8315C24.3911 30.9414 24.1978 31 24 31C23.7348 31 23.4804 30.8946 23.2929 30.7071C23.1054 30.5196 23 30.2652 23 30ZM30 27C30.5933 27 31.1734 26.8241 31.6667 26.4944C32.1601 26.1648 32.5446 25.6962 32.7716 25.1481C32.9987 24.5999 33.0581 23.9967 32.9424 23.4147C32.8266 22.8328 32.5409 22.2982 32.1213 21.8787C31.7018 21.4591 31.1672 21.1734 30.5853 21.0576C30.0033 20.9419 29.4001 21.0013 28.852 21.2284C28.3038 21.4554 27.8352 21.8399 27.5056 22.3333C27.1759 22.8266 27 23.4067 27 24C27 24.7956 27.3161 25.5587 27.8787 26.1213C28.4413 26.6839 29.2044 27 30 27ZM30 23C30.1978 23 30.3911 23.0586 30.5556 23.1685C30.72 23.2784 30.8482 23.4346 30.9239 23.6173C30.9996 23.8 31.0194 24.0011 30.9808 24.1951C30.9422 24.3891 30.847 24.5673 30.7071 24.7071C30.5673 24.847 30.3891 24.9422 30.1951 24.9808C30.0011 25.0194 29.8 24.9996 29.6173 24.9239C29.4346 24.8482 29.2784 24.72 29.1685 24.5556C29.0586 24.3911 29 24.1978 29 24C29 23.7348 29.1054 23.4804 29.2929 23.2929C29.4804 23.1054 29.7348 23 30 23ZM18 21C17.4067 21 16.8266 21.1759 16.3333 21.5056C15.8399 21.8352 15.4554 22.3038 15.2284 22.8519C15.0013 23.4001 14.9419 24.0033 15.0576 24.5853C15.1734 25.1672 15.4591 25.7018 15.8787 26.1213C16.2982 26.5409 16.8328 26.8266 17.4147 26.9424C17.9967 27.0581 18.5999 26.9987 19.1481 26.7716C19.6962 26.5446 20.1648 26.1601 20.4944 25.6667C20.8241 25.1734 21 24.5933 21 24C21 23.2044 20.6839 22.4413 20.1213 21.8787C19.5587 21.3161 18.7956 21 18 21ZM18 25C17.8022 25 17.6089 24.9414 17.4444 24.8315C17.28 24.7216 17.1518 24.5654 17.0761 24.3827C17.0004 24.2 16.9806 23.9989 17.0192 23.8049C17.0578 23.6109 17.153 23.4327 17.2929 23.2929C17.4327 23.153 17.6109 23.0578 17.8049 23.0192C17.9989 22.9806 18.2 23.0004 18.3827 23.0761C18.5654 23.1518 18.7216 23.28 18.8315 23.4444C18.9414 23.6089 19 23.8022 19 24C19 24.2652 18.8946 24.5196 18.7071 24.7071C18.5196 24.8946 18.2652 25 18 25Z" fill="#E64351"/>
<g opacity="0.5">
<mask id="path-2-inside-1_412_45" fill="white">
<path d="M0 0H12V12H0V0Z"/>
</mask>
<path d="M0 0V-2H-2V0H0ZM0 0V2H12V0V-2H0V0ZM0 12H2V0H0H-2V12H0Z" fill="white" mask="url(#path-2-inside-1_412_45)"/>
</g>
<g opacity="0.5">
<mask id="path-4-inside-2_412_45" fill="white">
<path d="M48 0H36V12H48V0Z"/>
</mask>
<path d="M48 0V-2H50V0H48ZM48 0V2H36V0V-2H48V0ZM48 12H46V0H48H50V12H48Z" fill="white" mask="url(#path-4-inside-2_412_45)"/>
</g>
<g opacity="0.5">
<mask id="path-6-inside-3_412_45" fill="white">
<path d="M0 48H12V36H0V48Z"/>
</mask>
<path d="M0 48V50H-2V48H0ZM0 48V46H12V48V50H0V48ZM0 36H2V48H0H-2V36H0Z" fill="white" mask="url(#path-6-inside-3_412_45)"/>
</g>
<g opacity="0.5">
<mask id="path-8-inside-4_412_45" fill="white">
<path d="M48 48H36V36H48V48Z"/>
</mask>
<path d="M48 48V50H50V48H48ZM48 48V46H36V48V50H48V48ZM48 36H46V48H48H50V36H48Z" fill="white" mask="url(#path-8-inside-4_412_45)"/>
</g>
</svg>
