<svg width="48" height="48" viewBox="0 0 48 48" fill="none" xmlns="http://www.w3.org/2000/svg">
<path d="M23 20.9V30C23 30.2652 23.1054 30.5196 23.2929 30.7071C23.4804 30.8946 23.7348 31 24 31C24.2652 31 24.5196 30.8946 24.7071 30.7071C24.8946 30.5196 25 30.2652 25 30V20.9C26.214 20.6522 27.2928 19.9624 28.0272 18.9644C28.7616 17.9664 29.0992 16.7313 28.9747 15.4985C28.8501 14.2657 28.2723 13.123 27.3532 12.2921C26.434 11.4611 25.2391 11.001 24 11.001C22.7609 11.001 21.566 11.4611 20.6468 12.2921C19.7277 13.123 19.1499 14.2657 19.0253 15.4985C18.9008 16.7313 19.2384 17.9664 19.9728 18.9644C20.7072 19.9624 21.786 20.6522 23 20.9ZM24 13C24.5933 13 25.1734 13.1759 25.6667 13.5056C26.1601 13.8352 26.5446 14.3038 26.7716 14.8519C26.9987 15.4001 27.0581 16.0033 26.9424 16.5853C26.8266 17.1672 26.5409 17.7018 26.1213 18.1213C25.7018 18.5409 25.1672 18.8266 24.5853 18.9424C24.0033 19.0581 23.4001 18.9987 22.8519 18.7716C22.3038 18.5446 21.8352 18.1601 21.5056 17.6667C21.1759 17.1734 21 16.5933 21 16C21 15.2044 21.3161 14.4413 21.8787 13.8787C22.4413 13.3161 23.2044 13 24 13ZM38 30C38 33.8975 30.7863 36 24 36C17.2137 36 10 33.8975 10 30C10 29.0325 10.4762 27.6087 12.75 26.3237C14.2825 25.4562 16.39 24.79 18.8462 24.3962C18.9762 24.3757 19.1089 24.381 19.2368 24.4118C19.3646 24.4425 19.4852 24.4982 19.5916 24.5755C19.698 24.6529 19.7881 24.7505 19.8568 24.8627C19.9254 24.9748 19.9714 25.0994 19.9919 25.2294C20.0124 25.3593 20.0071 25.492 19.9764 25.6199C19.9456 25.7478 19.8899 25.8684 19.8126 25.9747C19.7352 26.0811 19.6377 26.1712 19.5255 26.2399C19.4133 26.3086 19.2887 26.3545 19.1587 26.375C16.9662 26.7275 15.0337 27.3288 13.7312 28.0688C12.6312 28.6875 12 29.3925 12 30C12 31.67 16.565 34 24 34C31.435 34 36 31.67 36 30C36 29.3925 35.3687 28.6875 34.2687 28.0637C32.9612 27.3237 31.0337 26.7225 28.8412 26.37C28.7086 26.3527 28.5807 26.3089 28.4653 26.2412C28.3498 26.1736 28.2491 26.0835 28.1691 25.9762C28.0891 25.8689 28.0315 25.7467 27.9996 25.6167C27.9677 25.4868 27.9622 25.3517 27.9835 25.2196C28.0047 25.0875 28.0523 24.961 28.1233 24.8476C28.1943 24.7342 28.2874 24.6362 28.397 24.5594C28.5066 24.4826 28.6305 24.4286 28.7613 24.4006C28.8922 24.3726 29.0273 24.3711 29.1588 24.3962C31.615 24.79 33.7225 25.4562 35.255 26.3237C37.5237 27.6087 38 29.0325 38 30Z" fill="#E64351"/>
<g opacity="0.5">
<mask id="path-2-inside-1_412_38" fill="white">
<path d="M0 0H12V12H0V0Z"/>
</mask>
<path d="M0 0V-2H-2V0H0ZM0 0V2H12V0V-2H0V0ZM0 12H2V0H0H-2V12H0Z" fill="white" mask="url(#path-2-inside-1_412_38)"/>
</g>
<g opacity="0.5">
<mask id="path-4-inside-2_412_38" fill="white">
<path d="M48 0H36V12H48V0Z"/>
</mask>
<path d="M48 0V-2H50V0H48ZM48 0V2H36V0V-2H48V0ZM48 12H46V0H48H50V12H48Z" fill="white" mask="url(#path-4-inside-2_412_38)"/>
</g>
<g opacity="0.5">
<mask id="path-6-inside-3_412_38" fill="white">
<path d="M0 48H12V36H0V48Z"/>
</mask>
<path d="M0 48V50H-2V48H0ZM0 48V46H12V48V50H0V48ZM0 36H2V48H0H-2V36H0Z" fill="white" mask="url(#path-6-inside-3_412_38)"/>
</g>
<g opacity="0.5">
<mask id="path-8-inside-4_412_38" fill="white">
<path d="M48 48H36V36H48V48Z"/>
</mask>
<path d="M48 48V50H50V48H48ZM48 48V46H36V48V50H48V48ZM48 36H46V48H48H50V36H48Z" fill="white" mask="url(#path-8-inside-4_412_38)"/>
</g>
</svg>
