<svg width="205" height="13" viewBox="0 0 205 13" fill="none" xmlns="http://www.w3.org/2000/svg">
<path d="M3.78475 12L0.552751 0.639999H3.59275L5.60875 8.8H4.64875L6.66475 0.639999H9.70475L6.47275 12H3.78475ZM10.7225 12V9.472H12.9625V3.168H10.7225V0.639999H18.0825V3.168H15.8425V9.472H18.0825V12H10.7225ZM22.2363 9.312V4.832L24.6043 0.639999H27.9963L22.2363 9.312ZM19.5163 12V0.639999H22.3963V12H19.5163ZM24.9563 12L22.7163 7.04L24.6363 5.28L27.9963 12H24.9563ZM29.27 12V9.472H31.51V3.168H29.27V0.639999H36.63V3.168H34.39V9.472H36.63V12H29.27ZM38.3838 12V0.639999H40.7838L43.3438 6.352V0.639999H46.0638V12H43.6638L41.1038 6.288V12H38.3838ZM51.5615 12.256C50.6655 12.256 49.8868 12.0213 49.2255 11.552C48.5642 11.072 48.0522 10.3893 47.6895 9.504C47.3268 8.61867 47.1455 7.56267 47.1455 6.336C47.1455 5.10933 47.3215 4.05333 47.6735 3.168C48.0255 2.272 48.5322 1.584 49.1935 1.104C49.8548 0.624 50.6442 0.384 51.5615 0.384C52.3508 0.384 53.0282 0.538666 53.5935 0.848C54.1695 1.15733 54.6442 1.62667 55.0175 2.256C55.3908 2.87467 55.6575 3.65867 55.8175 4.608L52.8895 4.768C52.8148 4.096 52.6655 3.616 52.4415 3.328C52.2175 3.04 51.9348 2.896 51.5935 2.896C51.2735 2.896 51.0015 3.02933 50.7775 3.296C50.5535 3.552 50.3828 3.936 50.2655 4.448C50.1482 4.96 50.0895 5.58933 50.0895 6.336C50.0895 7.072 50.1535 7.696 50.2815 8.208C50.4202 8.70933 50.6122 9.09333 50.8575 9.36C51.1135 9.616 51.4228 9.744 51.7855 9.744C52.0522 9.744 52.2762 9.68533 52.4575 9.568C52.6495 9.44 52.7935 9.25333 52.8895 9.008C52.9962 8.76267 53.0548 8.448 53.0655 8.064H51.4975V5.984H55.7215V12H54.0415L53.9135 9.696L54.5055 9.152C54.5055 9.68533 54.3828 10.192 54.1375 10.672C53.9028 11.1413 53.5668 11.5253 53.1295 11.824C52.6922 12.112 52.1695 12.256 51.5615 12.256ZM70.077 12.256C69.181 12.256 68.429 12.0907 67.821 11.76C67.2237 11.4293 66.765 10.9493 66.445 10.32C66.1357 9.69067 65.949 8.92267 65.885 8.016L68.749 7.888C68.813 8.32533 68.909 8.688 69.037 8.976C69.165 9.25333 69.3303 9.46133 69.533 9.6C69.7357 9.728 69.9757 9.792 70.253 9.792C70.4663 9.792 70.653 9.76 70.813 9.696C70.973 9.62133 71.0957 9.51467 71.181 9.376C71.277 9.23733 71.325 9.06667 71.325 8.864C71.325 8.61867 71.261 8.40533 71.133 8.224C71.0157 8.032 70.8183 7.86133 70.541 7.712C70.2637 7.56267 69.8957 7.43467 69.437 7.328C68.701 7.15733 68.0823 6.93867 67.581 6.672C67.0797 6.40533 66.701 6.05867 66.445 5.632C66.1997 5.19467 66.077 4.64 66.077 3.968C66.077 3.232 66.2263 2.59733 66.525 2.064C66.8343 1.52 67.2877 1.104 67.885 0.815999C68.4823 0.528 69.213 0.384 70.077 0.384C70.909 0.384 71.6183 0.528 72.205 0.815999C72.7917 1.104 73.245 1.54133 73.565 2.128C73.8957 2.704 74.0823 3.43467 74.125 4.32L71.229 4.432C71.1863 4.08 71.1063 3.78667 70.989 3.552C70.8823 3.31733 70.7383 3.14133 70.557 3.024C70.3757 2.90667 70.1677 2.848 69.933 2.848C69.6343 2.848 69.3943 2.93333 69.213 3.104C69.0423 3.27467 68.957 3.50933 68.957 3.808C68.957 4.032 69.0157 4.22933 69.133 4.4C69.261 4.56 69.469 4.70933 69.757 4.848C70.0557 4.976 70.461 5.09867 70.973 5.216C71.7943 5.39733 72.4397 5.65333 72.909 5.984C73.3783 6.31467 73.709 6.70933 73.901 7.168C74.1037 7.616 74.205 8.128 74.205 8.704C74.205 9.44 74.045 10.0747 73.725 10.608C73.405 11.1307 72.9357 11.536 72.317 11.824C71.709 12.112 70.9623 12.256 70.077 12.256ZM79.3188 12.256C78.0388 12.256 77.0521 11.9093 76.3588 11.216C75.6654 10.5227 75.3188 9.48267 75.3188 8.096V0.624H78.1988V8.416C78.1988 8.84267 78.2948 9.17867 78.4868 9.424C78.6788 9.66933 78.9561 9.792 79.3188 9.792C79.6814 9.792 79.9588 9.66933 80.1508 9.424C80.3428 9.17867 80.4388 8.84267 80.4388 8.416V0.624H83.3188V8.096C83.3188 9.48267 82.9721 10.5227 82.2788 11.216C81.5854 11.9093 80.5988 12.256 79.3188 12.256ZM84.7525 12V0.639999H87.1525L89.7125 6.352V0.639999H92.4325V12H90.0325L87.4725 6.288V12H84.7525ZM97.8983 12.256C97.0023 12.256 96.2503 12.0907 95.6423 11.76C95.0449 11.4293 94.5863 10.9493 94.2663 10.32C93.9569 9.69067 93.7703 8.92267 93.7063 8.016L96.5703 7.888C96.6343 8.32533 96.7303 8.688 96.8583 8.976C96.9863 9.25333 97.1516 9.46133 97.3543 9.6C97.5569 9.728 97.7969 9.792 98.0743 9.792C98.2876 9.792 98.4743 9.76 98.6343 9.696C98.7943 9.62133 98.9169 9.51467 99.0023 9.376C99.0983 9.23733 99.1463 9.06667 99.1463 8.864C99.1463 8.61867 99.0823 8.40533 98.9543 8.224C98.8369 8.032 98.6396 7.86133 98.3623 7.712C98.0849 7.56267 97.7169 7.43467 97.2583 7.328C96.5223 7.15733 95.9036 6.93867 95.4023 6.672C94.9009 6.40533 94.5223 6.05867 94.2663 5.632C94.0209 5.19467 93.8983 4.64 93.8983 3.968C93.8983 3.232 94.0476 2.59733 94.3463 2.064C94.6556 1.52 95.1089 1.104 95.7063 0.815999C96.3036 0.528 97.0343 0.384 97.8983 0.384C98.7303 0.384 99.4396 0.528 100.026 0.815999C100.613 1.104 101.066 1.54133 101.386 2.128C101.717 2.704 101.904 3.43467 101.946 4.32L99.0503 4.432C99.0076 4.08 98.9276 3.78667 98.8103 3.552C98.7036 3.31733 98.5596 3.14133 98.3783 3.024C98.1969 2.90667 97.9889 2.848 97.7543 2.848C97.4556 2.848 97.2156 2.93333 97.0343 3.104C96.8636 3.27467 96.7783 3.50933 96.7783 3.808C96.7783 4.032 96.8369 4.22933 96.9543 4.4C97.0823 4.56 97.2903 4.70933 97.5783 4.848C97.8769 4.976 98.2823 5.09867 98.7943 5.216C99.6156 5.39733 100.261 5.65333 100.73 5.984C101.2 6.31467 101.53 6.70933 101.722 7.168C101.925 7.616 102.026 8.128 102.026 8.704C102.026 9.44 101.866 10.0747 101.546 10.608C101.226 11.1307 100.757 11.536 100.138 11.824C99.5303 12.112 98.7836 12.256 97.8983 12.256ZM103.62 12V0.639999H110.852V3.168H106.5V5.072H110.66V7.536H106.5V9.472H110.98V12H103.62ZM114.974 12V3.168H112.254V0.639999H120.574V3.168H117.854V12H114.974ZM134.993 12.256C134.097 12.256 133.345 12.0907 132.737 11.76C132.14 11.4293 131.681 10.9493 131.361 10.32C131.052 9.69067 130.865 8.92267 130.801 8.016L133.665 7.888C133.729 8.32533 133.825 8.688 133.953 8.976C134.081 9.25333 134.247 9.46133 134.449 9.6C134.652 9.728 134.892 9.792 135.169 9.792C135.383 9.792 135.569 9.76 135.729 9.696C135.889 9.62133 136.012 9.51467 136.097 9.376C136.193 9.23733 136.241 9.06667 136.241 8.864C136.241 8.61867 136.177 8.40533 136.049 8.224C135.932 8.032 135.735 7.86133 135.457 7.712C135.18 7.56267 134.812 7.43467 134.353 7.328C133.617 7.15733 132.999 6.93867 132.497 6.672C131.996 6.40533 131.617 6.05867 131.361 5.632C131.116 5.19467 130.993 4.64 130.993 3.968C130.993 3.232 131.143 2.59733 131.441 2.064C131.751 1.52 132.204 1.104 132.801 0.815999C133.399 0.528 134.129 0.384 134.993 0.384C135.825 0.384 136.535 0.528 137.121 0.815999C137.708 1.104 138.161 1.54133 138.481 2.128C138.812 2.704 138.999 3.43467 139.041 4.32L136.145 4.432C136.103 4.08 136.023 3.78667 135.905 3.552C135.799 3.31733 135.655 3.14133 135.473 3.024C135.292 2.90667 135.084 2.848 134.849 2.848C134.551 2.848 134.311 2.93333 134.129 3.104C133.959 3.27467 133.873 3.50933 133.873 3.808C133.873 4.032 133.932 4.22933 134.049 4.4C134.177 4.56 134.385 4.70933 134.673 4.848C134.972 4.976 135.377 5.09867 135.889 5.216C136.711 5.39733 137.356 5.65333 137.825 5.984C138.295 6.31467 138.625 6.70933 138.817 7.168C139.02 7.616 139.121 8.128 139.121 8.704C139.121 9.44 138.961 10.0747 138.641 10.608C138.321 11.1307 137.852 11.536 137.233 11.824C136.625 12.112 135.879 12.256 134.993 12.256ZM142.795 12V3.168H140.075V0.639999H148.395V3.168H145.675V12H142.795ZM153.509 12.256C152.229 12.256 151.242 11.9093 150.549 11.216C149.855 10.5227 149.509 9.48267 149.509 8.096V0.624H152.389V8.416C152.389 8.84267 152.485 9.17867 152.677 9.424C152.869 9.66933 153.146 9.792 153.509 9.792C153.871 9.792 154.149 9.66933 154.341 9.424C154.533 9.17867 154.629 8.84267 154.629 8.416V0.624H157.509V8.096C157.509 9.48267 157.162 10.5227 156.469 11.216C155.775 11.9093 154.789 12.256 153.509 12.256ZM158.846 12V0.639999H161.918C163.038 0.639999 163.982 0.858666 164.75 1.296C165.529 1.73333 166.121 2.37867 166.526 3.232C166.932 4.07467 167.134 5.104 167.134 6.32C167.134 7.536 166.932 8.56533 166.526 9.408C166.121 10.2507 165.529 10.896 164.75 11.344C163.982 11.7813 163.038 12 161.918 12H158.846ZM161.726 9.472H162.014C162.74 9.472 163.284 9.21067 163.646 8.688C164.009 8.16533 164.19 7.376 164.19 6.32C164.19 5.264 164.009 4.47467 163.646 3.952C163.284 3.42933 162.74 3.168 162.014 3.168H161.726V9.472ZM168.376 12V9.472H170.616V3.168H168.376V0.639999H175.736V3.168H173.496V9.472H175.736V12H168.376ZM181.33 12.256C180.402 12.256 179.613 12.0267 178.962 11.568C178.322 11.1093 177.831 10.4427 177.49 9.568C177.149 8.68267 176.978 7.60533 176.978 6.336C176.978 5.06667 177.149 3.98933 177.49 3.104C177.831 2.21867 178.322 1.54667 178.962 1.088C179.613 0.618666 180.402 0.384 181.33 0.384C182.258 0.384 183.047 0.618666 183.698 1.088C184.349 1.54667 184.839 2.21867 185.17 3.104C185.511 3.98933 185.682 5.06667 185.682 6.336C185.682 7.60533 185.511 8.68267 185.17 9.568C184.839 10.4427 184.349 11.1093 183.698 11.568C183.047 12.0267 182.258 12.256 181.33 12.256ZM181.33 9.792C181.65 9.792 181.911 9.68 182.114 9.456C182.327 9.232 182.482 8.86933 182.578 8.368C182.685 7.856 182.738 7.17867 182.738 6.336C182.738 5.49333 182.685 4.816 182.578 4.304C182.482 3.792 182.327 3.424 182.114 3.2C181.911 2.96533 181.65 2.848 181.33 2.848C181.021 2.848 180.759 2.96533 180.546 3.2C180.333 3.424 180.173 3.792 180.066 4.304C179.97 4.816 179.922 5.49333 179.922 6.336C179.922 7.17867 179.97 7.856 180.066 8.368C180.173 8.86933 180.333 9.232 180.546 9.456C180.759 9.68 181.021 9.792 181.33 9.792ZM190.636 12.256C189.74 12.256 188.988 12.0907 188.38 11.76C187.782 11.4293 187.324 10.9493 187.004 10.32C186.694 9.69067 186.508 8.92267 186.444 8.016L189.308 7.888C189.372 8.32533 189.468 8.688 189.596 8.976C189.724 9.25333 189.889 9.46133 190.092 9.6C190.294 9.728 190.534 9.792 190.812 9.792C191.025 9.792 191.212 9.76 191.372 9.696C191.532 9.62133 191.654 9.51467 191.74 9.376C191.836 9.23733 191.884 9.06667 191.884 8.864C191.884 8.61867 191.82 8.40533 191.692 8.224C191.574 8.032 191.377 7.86133 191.1 7.712C190.822 7.56267 190.454 7.43467 189.996 7.328C189.26 7.15733 188.641 6.93867 188.14 6.672C187.638 6.40533 187.26 6.05867 187.004 5.632C186.758 5.19467 186.636 4.64 186.636 3.968C186.636 3.232 186.785 2.59733 187.084 2.064C187.393 1.52 187.846 1.104 188.444 0.815999C189.041 0.528 189.772 0.384 190.636 0.384C191.468 0.384 192.177 0.528 192.764 0.815999C193.35 1.104 193.804 1.54133 194.124 2.128C194.454 2.704 194.641 3.43467 194.684 4.32L191.788 4.432C191.745 4.08 191.665 3.78667 191.548 3.552C191.441 3.31733 191.297 3.14133 191.116 3.024C190.934 2.90667 190.726 2.848 190.492 2.848C190.193 2.848 189.953 2.93333 189.772 3.104C189.601 3.27467 189.516 3.50933 189.516 3.808C189.516 4.032 189.574 4.22933 189.692 4.4C189.82 4.56 190.028 4.70933 190.316 4.848C190.614 4.976 191.02 5.09867 191.532 5.216C192.353 5.39733 192.998 5.65333 193.468 5.984C193.937 6.31467 194.268 6.70933 194.46 7.168C194.662 7.616 194.764 8.128 194.764 8.704C194.764 9.44 194.604 10.0747 194.284 10.608C193.964 11.1307 193.494 11.536 192.876 11.824C192.268 12.112 191.521 12.256 190.636 12.256ZM201.317 6.256L199.557 0.639999H200.805L202.309 5.776H201.381L202.885 0.639999H204.134L202.373 6.256H201.317ZM196.197 6.256V0.655999H197.797V6.256H196.197ZM195.237 2.144V0.639999H198.757V2.144H195.237ZM199.173 6.256V0.639999H200.613V6.256H199.173ZM203.077 6.256V0.639999H204.517V6.256H203.077Z" fill="white"/>
</svg>
